<svg width="169" height="186" viewBox="0 0 169 186" fill="none" xmlns="http://www.w3.org/2000/svg">
<rect width="169" height="186" fill="#F5F5F5"/>
<path d="M161.977 47.6852C161.805 47.6852 161.547 47.6852 161.289 47.6852C115.739 43.1217 70.2759 41.3996 25.2429 45.9631L7.6775 47.6852C4.0611 48.0296 0.875225 45.4465 0.530806 41.8301C0.186387 38.2137 2.76953 35.1139 6.29982 34.7695L23.8652 33.0474C69.6732 28.3978 116.084 30.206 162.58 34.7695C166.11 35.1139 168.694 38.2998 168.349 41.8301C168.091 45.1882 165.249 47.6852 161.977 47.6852Z" fill="#FF0000"/>
<path d="M54.3555 38.9888C54.0111 38.9888 53.6666 38.9888 53.2361 38.9027C49.7919 38.3 47.381 34.9419 47.9837 31.4977L49.878 20.218C51.2557 11.9519 53.15 0.5 73.2121 0.5H95.7715C115.92 0.5 117.814 12.3825 119.106 20.3041L121 31.4977C121.603 35.028 119.192 38.3861 115.748 38.9027C112.218 39.5054 108.859 37.0945 108.343 33.6503L106.449 22.4567C105.243 14.9656 104.985 13.5018 95.8576 13.5018H73.2982C64.1714 13.5018 63.9992 14.7073 62.7076 22.3706L60.7272 33.5642C60.2106 36.7501 57.4552 38.9888 54.3555 38.9888Z" fill="#FF0000"/>
<path d="M112.129 185.626H56.8495C26.799 185.626 25.5935 169.008 24.6463 155.575L19.0495 68.8678C18.7912 65.3375 21.5466 62.2378 25.0769 61.9795C28.6933 61.8073 31.7069 64.4765 31.9652 68.0068L37.562 154.714C38.5092 167.802 38.8536 172.71 56.8495 172.71H112.129C130.211 172.71 130.555 167.802 131.416 154.714L137.013 68.0068C137.271 64.4765 140.371 61.8073 143.901 61.9795C147.432 62.2378 150.187 65.2514 149.929 68.8678L144.332 155.575C143.385 169.008 142.179 185.626 112.129 185.626Z" fill="#FF0000"/>
<path d="M98.78 138.268H70.1071C66.5767 138.268 63.6491 135.34 63.6491 131.81C63.6491 128.279 66.5767 125.352 70.1071 125.352H98.78C102.31 125.352 105.238 128.279 105.238 131.81C105.238 135.34 102.31 138.268 98.78 138.268Z" fill="#FF0000"/>
<path d="M106.012 103.826H62.9596C59.4293 103.826 56.5017 100.898 56.5017 97.3678C56.5017 93.8375 59.4293 90.91 62.9596 90.91H106.012C109.542 90.91 112.47 93.8375 112.47 97.3678C112.47 100.898 109.542 103.826 106.012 103.826Z" fill="#FF0000"/>
</svg>
