<svg width="94" height="94" viewBox="0 0 94 94" fill="none" xmlns="http://www.w3.org/2000/svg">
<path d="M65.6233 70.2867L88.94 46.97M88.94 46.97L65.6233 23.6533M88.94 46.97H32.98M46.97 70.2867C46.97 74.6236 46.97 76.792 46.4934 78.5711C45.1998 83.3986 41.4286 87.1698 36.6009 88.4634C34.8218 88.94 32.6534 88.94 28.3167 88.94H25.985C19.4665 88.94 16.2072 88.94 13.6363 87.8749C10.2083 86.4554 7.48481 83.7315 6.06492 80.304C5 77.7326 5 74.4734 5 67.955V25.985C5 19.4665 5 16.2072 6.06492 13.6363C7.48481 10.2083 10.2083 7.48481 13.6363 6.06492C16.2072 5 19.4665 5 25.985 5H28.3167C32.6534 5 34.8218 5 36.6009 5.47669C41.4286 6.77029 45.1998 10.5413 46.4934 15.3691C46.97 17.1482 46.97 19.3166 46.97 23.6533" stroke="white" stroke-width="7.32667" stroke-linecap="round" stroke-linejoin="round"/>
</svg>
