<svg width="84" height="84" viewBox="0 0 84 84" fill="none" xmlns="http://www.w3.org/2000/svg">
<path fill-rule="evenodd" clip-rule="evenodd" d="M38.7506 19.0068L43.6297 14.1275C47.5608 10.1965 54.4556 7.46848 61.3074 6.48977C64.6838 6.00746 67.8766 5.97745 70.4827 6.36773C73.1803 6.77173 74.8338 7.56143 75.6065 8.33363C76.3787 9.10583 77.1685 10.7591 77.5722 13.4568C77.9626 16.0629 77.9327 19.2559 77.4503 22.6324C76.4714 29.4839 73.7433 36.3788 69.8119 40.3101L42.6931 67.4291L35.7009 60.4372C34.5099 59.246 32.5791 59.246 31.3882 60.4372C30.1973 61.6277 30.1973 63.5586 31.3882 64.7498L40.5368 73.8983C41.7277 75.0888 43.6586 75.0888 44.8495 73.8983L48.1867 70.5609L55.3257 82.4589C55.8089 83.2646 56.636 83.8019 57.5681 83.9172C58.5 84.0318 59.4332 83.7104 60.0967 83.0468L72.2948 70.8488C72.9736 70.17 73.2932 69.2112 73.1578 68.261L70.3236 48.4238L74.1251 44.6227C79.3422 39.4052 82.4082 31.0524 83.4877 23.4949C84.0348 19.667 84.1 15.8653 83.6042 12.5535C83.1218 9.33332 82.0434 6.1456 79.9185 4.02089C77.7943 1.89623 74.6063 0.81818 71.386 0.335943C68.0742 -0.160024 64.2727 -0.0947705 60.4444 0.452044C52.8872 1.53161 44.5344 4.59755 39.317 9.81478L35.516 13.6161L15.6788 10.7822C14.7287 10.6464 13.7699 10.966 13.0912 11.6447L0.893208 23.8427C0.229195 24.5068 -0.0918631 25.4397 0.0228717 26.3717C0.137613 27.3037 0.675345 28.1309 1.48058 28.614L13.3791 35.7531L10.0418 39.0903C9.46995 39.6622 9.14866 40.4378 9.14866 41.2466C9.14866 42.0554 9.46995 42.831 10.0418 43.4029L19.1904 52.5515C20.3813 53.7424 22.3121 53.7424 23.503 52.5515C24.694 51.3606 24.694 49.4298 23.503 48.2389L16.5108 41.2466L20.4535 37.3039L38.7506 19.0068ZM58.5464 75.972L52.6321 66.1153L64.9326 53.8147L66.9045 67.6139L58.5464 75.972ZM17.8245 31.3077L30.1252 19.0069L16.3257 17.0355L7.96764 25.3936L17.8245 31.3077ZM11.3049 58.6501C12.4958 57.4596 12.4958 55.5287 11.3049 54.3378C10.114 53.1469 8.18312 53.1469 6.99223 54.3378L0.893208 60.4365C-0.297705 61.6277 -0.297705 63.5586 0.893208 64.7492C2.08412 65.9403 4.01499 65.9403 5.20588 64.7492L11.3049 58.6501ZM20.4536 67.7993C21.6445 66.6081 21.6445 64.6772 20.4536 63.4867C19.2627 62.2955 17.3319 62.2955 16.1409 63.4867L3.94271 75.6841C2.75182 76.8752 2.7518 78.8062 3.94271 79.9967C5.13361 81.1879 7.06444 81.1879 8.25533 79.9973L20.4536 67.7993ZM29.602 76.9472C30.7929 75.7567 30.7929 73.8257 29.602 72.6346C28.4111 71.4441 26.4802 71.4441 25.2893 72.6346L19.1903 78.7336C17.9994 79.9248 17.9994 81.8557 19.1903 83.0462C20.3812 84.2374 22.3121 84.2374 23.503 83.0462L29.602 76.9472ZM48.9446 28.7438C48.9446 25.628 51.4704 23.1022 54.5862 23.1022C57.7019 23.1022 60.2279 25.628 60.2279 28.7438C60.2279 31.8596 57.7019 34.3854 54.5862 34.3854C51.4704 34.3854 48.9446 31.8596 48.9446 28.7438ZM54.5862 17.9181C48.6073 17.9181 43.7604 22.7649 43.7604 28.7438C43.7604 34.7227 48.6073 39.5696 54.5862 39.5696C60.5651 39.5696 65.412 34.7227 65.412 28.7438C65.412 22.7649 60.5651 17.9181 54.5862 17.9181Z" fill="black"/>
</svg>
